<svg width="2000" height="2000" viewBox="0 0 2000 2000" fill="none" xmlns="http://www.w3.org/2000/svg">
<path d="M772.534 920.955C846.534 605.755 1011.7 426.622 1085.03 376.455C1003.83 436.055 934.034 581.955 881.534 717.955C809.786 903.817 790.034 994.955 778.534 1247.96C765.835 1527.32 834.534 1681.12 865.534 1716.96L722.534 1786.96C720.534 1775.79 715.134 1740.46 709.534 1688.46C702.534 1623.46 680.034 1314.96 772.534 920.955Z" fill="#004D71" stroke="#004D71" stroke-width="4" stroke-linecap="round" stroke-linejoin="round"/>
<path d="M864.033 1718.46C866.433 1716.46 916.367 1692.62 941.033 1680.96C914.367 1654.29 852.933 1559.46 820.533 1393.46C788.133 1227.46 819.7 1142.29 839.533 1120.46C838.7 1059.96 852.333 895.955 913.533 723.955C990.033 508.955 1002.53 460.955 1085.03 376.955" stroke="#004D71" stroke-width="4" stroke-linecap="round" stroke-linejoin="round"/>
<circle cx="1101.53" cy="354.455" r="8" stroke="#004D71" stroke-width="4"/>
<path fill-rule="evenodd" clip-rule="evenodd" d="M1109.66 360.289C1111.01 359.957 1112.57 359.52 1114.35 359.023C1129.07 354.899 1158.42 346.681 1206.03 360.455C1254.43 374.455 1278.87 405.288 1285.03 418.955C1288.03 407.455 1281.53 323.455 1204.53 314.455C1144.34 307.418 1120.2 333.692 1110.62 350.272C1111.21 351.545 1111.53 352.961 1111.53 354.455C1111.53 356.632 1110.84 358.647 1109.66 360.289Z" fill="#004D71"/>
<path d="M1109.66 360.289L1108.03 359.121C1107.54 359.801 1107.53 360.714 1108 361.408C1108.47 362.103 1109.32 362.431 1110.13 362.232L1109.66 360.289ZM1114.35 359.023L1114.89 360.949L1114.89 360.949L1114.35 359.023ZM1206.03 360.455L1206.59 358.533L1206.59 358.533L1206.03 360.455ZM1285.03 418.955L1283.21 419.777C1283.56 420.55 1284.36 421.019 1285.2 420.947C1286.05 420.876 1286.76 420.28 1286.97 419.459L1285.03 418.955ZM1204.53 314.455L1204.3 316.441L1204.53 314.455ZM1110.62 350.272L1108.89 349.272C1108.56 349.834 1108.53 350.52 1108.8 351.11L1110.62 350.272ZM1109.66 360.289L1110.13 362.232C1111.53 361.89 1113.12 361.443 1114.89 360.949L1114.35 359.023L1113.81 357.097C1112.02 357.596 1110.5 358.024 1109.18 358.347L1109.66 360.289ZM1114.35 359.023L1114.89 360.949C1129.43 356.875 1158.36 348.747 1205.48 362.376L1206.03 360.455L1206.59 358.533C1158.47 344.615 1128.71 352.922 1113.81 357.097L1114.35 359.023ZM1206.03 360.455L1205.48 362.376C1253.32 376.215 1277.29 406.65 1283.21 419.777L1285.03 418.955L1286.86 418.132C1280.45 403.926 1255.55 372.695 1206.59 358.533L1206.03 360.455ZM1285.03 418.955L1286.97 419.459C1287.41 417.755 1287.64 414.967 1287.59 411.508C1287.55 407.997 1287.24 403.65 1286.53 398.755C1285.12 388.969 1282.13 376.917 1276.6 364.929C1265.51 340.904 1244.13 317.069 1204.77 312.468L1204.53 314.455L1204.3 316.441C1241.94 320.841 1262.31 343.505 1272.97 366.605C1278.31 378.18 1281.2 389.847 1282.57 399.326C1283.25 404.064 1283.55 408.236 1283.59 411.556C1283.64 414.927 1283.4 417.279 1283.1 418.45L1285.03 418.955ZM1204.53 314.455L1204.77 312.468C1174.34 308.912 1152.84 313.756 1137.66 321.737C1122.49 329.716 1113.82 340.742 1108.89 349.272L1110.62 350.272L1112.35 351.273C1117 343.222 1125.18 332.821 1139.53 325.277C1153.86 317.736 1174.53 312.961 1204.3 316.441L1204.53 314.455ZM1110.62 350.272L1108.8 351.11C1109.27 352.125 1109.53 353.256 1109.53 354.455H1111.53H1113.53C1113.53 352.666 1113.14 350.964 1112.44 349.435L1110.62 350.272ZM1111.53 354.455H1109.53C1109.53 356.199 1108.98 357.808 1108.03 359.121L1109.66 360.289L1111.28 361.458C1112.7 359.487 1113.53 357.065 1113.53 354.455H1111.53Z" fill="#004D71"/>
<circle cx="1084.53" cy="364.455" r="8" stroke="#004D71" stroke-width="4"/>
<path fill-rule="evenodd" clip-rule="evenodd" d="M834.533 407.412C834.525 404.76 834.241 317.805 937.534 295.955C1032.93 275.775 1073.22 328.375 1080.39 355.353C1078.65 356.145 1077.18 357.417 1076.15 359.001C1054.85 348.344 1006.47 334.278 945.534 345.955C862.034 361.955 848.034 383.455 834.534 407.455C834.534 407.444 834.534 407.43 834.533 407.412Z" fill="#004D71"/>
<path d="M937.534 295.955L937.947 297.911L937.534 295.955ZM834.533 407.412L836.533 407.406L836.533 407.406L834.533 407.412ZM1080.39 355.353L1081.22 357.172C1082.1 356.767 1082.57 355.782 1082.32 354.839L1080.39 355.353ZM1076.15 359.001L1075.26 360.789C1076.16 361.244 1077.27 360.944 1077.83 360.093L1076.15 359.001ZM945.534 345.955L945.91 347.919L945.91 347.919L945.534 345.955ZM834.534 407.455H832.534C832.534 408.364 833.147 409.159 834.027 409.389C834.906 409.62 835.831 409.228 836.277 408.435L834.534 407.455ZM937.534 295.955L937.12 293.998C884.859 305.053 858.621 332.655 845.52 357.963C832.465 383.179 832.529 405.956 832.533 407.419L834.533 407.412L836.533 407.406C836.53 406.216 836.447 384.189 849.072 359.802C861.649 335.507 886.916 308.707 937.947 297.911L937.534 295.955ZM1080.39 355.353L1082.32 354.839C1078.6 340.852 1066.42 320.531 1043.09 306.263C1019.7 291.959 985.243 283.818 937.12 293.998L937.534 295.955L937.947 297.911C985.221 287.911 1018.61 295.98 1041 309.676C1063.45 323.408 1075 342.875 1078.45 355.867L1080.39 355.353ZM1076.15 359.001L1077.83 360.093C1078.65 358.824 1079.83 357.805 1081.22 357.172L1080.39 355.353L1079.55 353.533C1077.47 354.484 1075.71 356.01 1074.48 357.908L1076.15 359.001ZM945.534 345.955L945.91 347.919C1006.38 336.331 1054.31 350.313 1075.26 360.789L1076.15 359.001L1077.05 357.212C1055.38 346.376 1006.56 332.224 945.157 343.99L945.534 345.955ZM834.534 407.455L836.277 408.435C842.985 396.509 849.67 385.477 864.89 375.371C880.193 365.21 904.266 355.899 945.91 347.919L945.534 345.955L945.157 343.99C903.301 352.011 878.625 361.45 862.677 372.039C846.647 382.683 839.582 394.401 832.79 406.474L834.534 407.455ZM834.533 407.412L832.533 407.419C832.534 407.438 832.534 407.449 832.534 407.455H834.534H836.534C836.534 407.44 836.534 407.422 836.533 407.406L834.533 407.412Z" fill="#004D71"/>
<circle cx="1101.53" cy="374.455" r="8" stroke="#004D71" stroke-width="4"/>
<path fill-rule="evenodd" clip-rule="evenodd" d="M1108.06 382.035C1110.19 380.201 1111.53 377.485 1111.53 374.455C1111.53 374.158 1111.52 373.864 1111.5 373.573C1140.09 371.349 1187.01 383.421 1218.53 445.455C1255.73 518.655 1211.37 575.622 1184.53 594.955C1190.53 558.955 1194.53 525.955 1174.53 465.955C1160.97 425.266 1128.96 396.074 1108.06 382.035Z" fill="#004D71"/>
<path d="M1108.06 382.035L1106.75 380.519C1106.28 380.927 1106.02 381.531 1106.06 382.154C1106.1 382.777 1106.42 383.347 1106.94 383.695L1108.06 382.035ZM1111.5 373.573L1111.34 371.579C1110.81 371.62 1110.32 371.873 1109.97 372.28C1109.62 372.687 1109.46 373.215 1109.5 373.747L1111.5 373.573ZM1218.53 445.455L1220.32 444.549L1220.32 444.549L1218.53 445.455ZM1184.53 594.955L1182.56 594.626C1182.43 595.426 1182.79 596.227 1183.48 596.654C1184.17 597.082 1185.05 597.052 1185.7 596.578L1184.53 594.955ZM1174.53 465.955L1176.43 465.323L1176.43 465.323L1174.53 465.955ZM1111.53 374.455H1109.53C1109.53 376.879 1108.46 379.049 1106.75 380.519L1108.06 382.035L1109.36 383.55C1111.91 381.352 1113.53 378.092 1113.53 374.455H1111.53ZM1111.5 373.573L1109.5 373.747C1109.52 373.98 1109.53 374.216 1109.53 374.455H1111.53H1113.53C1113.53 374.1 1113.52 373.747 1113.49 373.399L1111.5 373.573ZM1111.5 373.573L1111.65 375.567C1139.48 373.402 1185.61 385.083 1216.75 446.361L1218.53 445.455L1220.32 444.549C1188.41 381.759 1140.7 369.295 1111.34 371.579L1111.5 373.573ZM1218.53 445.455L1216.75 446.361C1235.08 482.426 1233.29 514.379 1223.68 539.695C1214.04 565.089 1196.51 583.862 1183.37 593.333L1184.53 594.955L1185.7 596.578C1199.39 586.715 1217.46 567.339 1227.42 541.115C1237.4 514.815 1239.19 481.684 1220.32 444.549L1218.53 445.455ZM1184.53 594.955L1186.51 595.284C1189.51 577.26 1192.04 559.844 1191.28 539.381C1190.52 518.91 1186.48 495.471 1176.43 465.323L1174.53 465.955L1172.64 466.588C1182.59 496.439 1186.54 519.5 1187.29 539.529C1188.03 559.566 1185.56 576.65 1182.56 594.626L1184.53 594.955ZM1174.53 465.955L1176.43 465.323C1162.68 424.055 1130.28 394.547 1109.17 380.374L1108.06 382.035L1106.94 383.695C1127.65 397.601 1159.27 426.477 1172.64 466.588L1174.53 465.955Z" fill="#004D71"/>
<path fill-rule="evenodd" clip-rule="evenodd" d="M886.034 249.955L886.04 249.948C888.127 249.769 974.235 246.298 1025.03 281.955C1058.17 305.213 1076.59 335.091 1084.73 354.456C1087.34 354.506 1089.7 355.554 1091.45 357.234C1100.57 309.16 1074.18 240.49 1004.53 219.455C944.942 201.457 900.712 232.28 886.04 249.948C885.99 249.952 885.988 249.955 886.034 249.955Z" fill="#004D71"/>
<path d="M886.034 249.955V251.955C886.629 251.955 887.193 251.69 887.573 251.232L886.034 249.955ZM1025.03 281.955L1023.89 283.592L1023.89 283.592L1025.03 281.955ZM1084.73 354.456L1082.89 355.232C1083.19 355.961 1083.9 356.441 1084.69 356.456L1084.73 354.456ZM1091.45 357.234L1090.07 358.678C1090.6 359.186 1091.36 359.363 1092.06 359.139C1092.76 358.916 1093.28 358.327 1093.42 357.607L1091.45 357.234ZM1004.53 219.455L1003.96 221.369L1003.96 221.369L1004.53 219.455ZM886.04 249.948L884.501 248.67L884.495 248.677L886.034 249.955L887.573 251.232L887.578 251.225L886.04 249.948ZM1025.03 281.955L1026.18 280.318C1000.38 262.206 965.762 254.109 937.522 250.529C909.25 246.945 887.059 247.853 885.868 247.955L886.04 249.948L886.211 251.941C886.21 251.941 886.218 251.94 886.238 251.939C886.257 251.937 886.282 251.936 886.314 251.934C886.379 251.93 886.465 251.926 886.573 251.921C886.789 251.91 887.084 251.898 887.457 251.885C888.201 251.859 889.245 251.83 890.56 251.809C893.189 251.767 896.897 251.756 901.449 251.859C910.557 252.064 923.033 252.724 937.019 254.497C965.054 258.051 998.889 266.046 1023.89 283.592L1025.03 281.955ZM1084.73 354.456L1086.57 353.681C1078.31 334.04 1059.68 303.833 1026.18 280.318L1025.03 281.955L1023.89 283.592C1056.65 306.593 1074.86 336.141 1082.89 355.232L1084.73 354.456ZM1084.73 354.456L1084.69 356.456C1086.78 356.496 1088.66 357.332 1090.07 358.678L1091.45 357.234L1092.84 355.79C1090.74 353.776 1087.9 352.517 1084.77 352.457L1084.73 354.456ZM1004.53 219.455L1003.96 221.369C1072.48 242.065 1098.44 309.636 1089.49 356.861L1091.45 357.234L1093.42 357.607C1102.7 308.683 1075.89 238.914 1005.11 217.54L1004.53 219.455ZM886.04 249.948L887.578 251.226C901.883 234 945.331 203.664 1003.96 221.369L1004.53 219.455L1005.11 217.54C944.553 199.25 899.54 230.56 884.501 248.67L886.04 249.948ZM886.034 249.955V247.955C886.036 247.955 886.043 247.955 886.054 247.955C886.062 247.955 886.085 247.955 886.114 247.957C886.122 247.957 886.22 247.962 886.342 247.983C886.354 247.985 886.608 248.021 886.892 248.163C886.983 248.208 887.504 248.46 887.806 249.091C887.987 249.47 888.055 249.921 887.955 250.378C887.864 250.799 887.659 251.095 887.509 251.267C887.24 251.576 886.945 251.718 886.871 251.753C886.755 251.81 886.658 251.843 886.608 251.858C886.507 251.89 886.426 251.907 886.397 251.913C886.329 251.926 886.277 251.933 886.265 251.935C886.244 251.937 886.229 251.939 886.223 251.939C886.216 251.94 886.212 251.941 886.211 251.941L886.04 249.948L885.868 247.955C885.848 247.957 885.806 247.961 885.758 247.967C885.74 247.969 885.682 247.977 885.611 247.991C885.58 247.997 885.498 248.014 885.396 248.047C885.346 248.062 885.248 248.095 885.131 248.152C885.057 248.188 884.762 248.33 884.493 248.639C884.343 248.811 884.138 249.107 884.047 249.528C883.947 249.985 884.015 250.436 884.196 250.815C884.498 251.446 885.019 251.699 885.11 251.744C885.395 251.885 885.65 251.922 885.663 251.925C885.788 251.946 885.89 251.951 885.903 251.951C885.964 251.955 886.016 251.955 886.034 251.955V249.955Z" fill="#004D71"/>
<path d="M1274.53 1512.46C1241.73 1506.86 1223.2 1488.12 1218.03 1479.46C1213.2 1479.62 1202.53 1479.46 1199.53 1479.46H1199.53C1196.53 1479.46 1170.53 1479.46 1154.03 1483.46C1140.83 1486.66 1123.87 1487.46 1117.03 1487.46C1172.23 1535.86 1245.03 1524.29 1274.53 1512.46Z" fill="#004D71" stroke="#004D71" stroke-width="4" stroke-linecap="round" stroke-linejoin="round"/>
<path d="M1151.03 1305.46C1125.83 1277.86 1120.53 1238.62 1121.03 1222.46C1085.43 1252.06 1085.87 1288.12 1090.53 1302.46C1112.53 1300.06 1140.03 1303.46 1151.03 1305.46Z" fill="#004D71"/>
<path d="M1095.03 1485.46C1061.43 1481.46 1039.37 1472.46 1032.53 1468.46C1016.93 1504.06 976.034 1526.29 957.534 1532.96C1033.93 1551.76 1081.03 1509.12 1095.03 1485.46Z" fill="#004D71"/>
<path d="M1151.03 1305.46C1125.83 1277.86 1120.53 1238.62 1121.03 1222.46C1085.43 1252.06 1085.87 1288.12 1090.53 1302.46C1112.53 1300.06 1140.03 1303.46 1151.03 1305.46Z" stroke="#004D71" stroke-width="4" stroke-linecap="round" stroke-linejoin="round"/>
<path d="M1095.03 1485.46C1061.43 1481.46 1039.37 1472.46 1032.53 1468.46C1016.93 1504.06 976.034 1526.29 957.534 1532.96C1033.93 1551.76 1081.03 1509.12 1095.03 1485.46Z" stroke="#004D71" stroke-width="4" stroke-linecap="round" stroke-linejoin="round"/>
<path d="M1297.53 1498.96C1279.03 1486.79 1224.23 1465.46 1153.03 1477.46C1064.03 1492.46 999.034 1444.96 995.534 1441.96C992.034 1438.96 958.534 1408.46 941.534 1380.46C924.534 1352.46 913.034 1333.46 900.034 1319.96C887.034 1306.46 850.534 1283.96 849.034 1348.96C847.534 1413.96 828.034 1367.95 824.534 1358.46C821.034 1348.96 816.534 1272.46 818.034 1250.46" stroke="#004D71" stroke-width="4" stroke-linecap="round" stroke-linejoin="round"/>
<path fill-rule="evenodd" clip-rule="evenodd" d="M818.034 1251.95C819.534 1221.12 824.634 1160.15 833.034 1162.95C843.534 1166.45 854.034 1169.95 876.034 1229.45C898.034 1288.95 1018.03 1305.45 1048.03 1307.45C1054.9 1307.91 1063.77 1307.98 1073.86 1308.05C1107.84 1308.3 1155.77 1308.65 1188.53 1324.45C1231.03 1344.95 1306.53 1396.45 1297.03 1499.95C1278.87 1475.62 1216.93 1417.05 1114.53 1377.45C1043.27 1349.9 1029.04 1347.13 1014.98 1344.41C1003.79 1342.23 992.706 1340.08 953.034 1325.45C888.655 1301.72 857.649 1279.27 837.686 1264.82C829.896 1259.18 823.788 1254.76 818.034 1251.95ZM1201.53 1390.45C1211.48 1390.45 1219.53 1382.4 1219.53 1372.45C1219.53 1362.51 1211.48 1354.45 1201.53 1354.45C1191.59 1354.45 1183.53 1362.51 1183.53 1372.45C1183.53 1382.4 1191.59 1390.45 1201.53 1390.45Z" fill="#004D71"/>
<path d="M833.034 1162.95L833.667 1161.06L833.034 1162.95ZM818.034 1251.95L816.037 1251.86C815.998 1252.66 816.438 1253.4 817.157 1253.75L818.034 1251.95ZM876.034 1229.45L877.91 1228.76L876.034 1229.45ZM1048.03 1307.45L1048.17 1305.46L1048.17 1305.46L1048.03 1307.45ZM1073.86 1308.05L1073.84 1310.05L1073.84 1310.05L1073.86 1308.05ZM1188.53 1324.45L1187.67 1326.26L1187.67 1326.26L1188.53 1324.45ZM1297.03 1499.95L1295.43 1501.15C1295.93 1501.81 1296.78 1502.1 1297.58 1501.88C1298.37 1501.65 1298.95 1500.96 1299.03 1500.14L1297.03 1499.95ZM1114.53 1377.45L1115.26 1375.59L1115.26 1375.59L1114.53 1377.45ZM1014.98 1344.41L1014.6 1346.37L1014.6 1346.37L1014.98 1344.41ZM953.034 1325.45L953.726 1323.58L953.726 1323.58L953.034 1325.45ZM837.686 1264.82L838.859 1263.2L838.859 1263.2L837.686 1264.82ZM833.034 1162.95L833.667 1161.06C832.525 1160.68 831.408 1160.87 830.467 1161.44C829.601 1161.96 828.915 1162.77 828.361 1163.62C827.251 1165.33 826.292 1167.84 825.437 1170.79C823.711 1176.74 822.224 1185.18 820.964 1194.58C818.442 1213.4 816.788 1236.41 816.037 1251.86L818.034 1251.95L820.032 1252.05C820.78 1236.66 822.427 1213.78 824.929 1195.11C826.182 1185.76 827.639 1177.56 829.278 1171.9C830.106 1169.05 830.936 1167 831.718 1165.8C832.11 1165.19 832.397 1164.95 832.529 1164.87C832.586 1164.83 832.493 1164.88 832.402 1164.85L833.034 1162.95ZM876.034 1229.45L877.91 1228.76C866.898 1198.98 858.69 1182.99 851.811 1173.99C848.348 1169.46 845.191 1166.66 842.148 1164.76C839.118 1162.87 836.283 1161.93 833.667 1161.06L833.034 1162.95L832.402 1164.85C835.035 1165.73 837.45 1166.54 840.03 1168.15C842.596 1169.75 845.408 1172.2 848.633 1176.42C855.129 1184.92 863.17 1200.43 874.158 1230.15L876.034 1229.45ZM1048.03 1307.45L1048.17 1305.46C1033.28 1304.47 995.953 1299.86 959.65 1288.11C941.501 1282.24 923.69 1274.61 909.087 1264.8C894.476 1254.99 883.213 1243.1 877.91 1228.76L876.034 1229.45L874.158 1230.15C879.855 1245.56 891.842 1258.04 906.857 1268.12C921.878 1278.21 940.068 1285.98 958.418 1291.92C995.116 1303.8 1032.79 1308.44 1047.9 1309.45L1048.03 1307.45ZM1073.86 1308.05L1073.87 1306.05C1063.76 1305.98 1054.96 1305.91 1048.17 1305.46L1048.03 1307.45L1047.9 1309.45C1054.84 1309.91 1063.77 1309.98 1073.84 1310.05L1073.86 1308.05ZM1188.53 1324.45L1189.4 1322.65C1172.71 1314.6 1152.27 1310.53 1131.86 1308.43C1111.42 1306.32 1090.85 1306.17 1073.87 1306.05L1073.86 1308.05L1073.84 1310.05C1090.85 1310.18 1111.23 1310.33 1131.45 1312.41C1151.68 1314.49 1171.59 1318.5 1187.67 1326.26L1188.53 1324.45ZM1297.03 1499.95L1299.03 1500.14C1308.65 1395.34 1232.11 1343.25 1189.4 1322.65L1188.53 1324.45L1187.67 1326.26C1229.96 1346.65 1304.42 1397.57 1295.04 1499.77L1297.03 1499.95ZM1114.53 1377.45L1113.81 1379.32C1215.89 1418.8 1277.51 1477.14 1295.43 1501.15L1297.03 1499.95L1298.64 1498.76C1280.23 1474.1 1217.98 1415.31 1115.26 1375.59L1114.53 1377.45ZM1014.98 1344.41L1014.6 1346.37C1028.49 1349.06 1042.59 1351.78 1113.81 1379.32L1114.53 1377.45L1115.26 1375.59C1043.95 1348.01 1029.59 1345.2 1015.36 1342.44L1014.98 1344.41ZM953.034 1325.45L952.342 1327.33C992.092 1341.99 1003.28 1344.17 1014.6 1346.37L1014.98 1344.41L1015.36 1342.44C1004.3 1340.29 993.32 1338.18 953.726 1323.58L953.034 1325.45ZM837.686 1264.82L836.513 1266.44C856.561 1280.95 887.731 1303.51 952.342 1327.33L953.034 1325.45L953.726 1323.58C889.578 1299.93 858.737 1277.59 838.859 1263.2L837.686 1264.82ZM818.034 1251.95L817.157 1253.75C822.721 1256.47 828.674 1260.77 836.513 1266.44L837.686 1264.82L838.859 1263.2C831.118 1257.6 824.855 1253.06 818.911 1250.16L818.034 1251.95ZM1219.53 1372.45H1217.53C1217.53 1381.29 1210.37 1388.45 1201.53 1388.45V1390.45V1392.45C1212.58 1392.45 1221.53 1383.5 1221.53 1372.45H1219.53ZM1201.53 1354.45V1356.45C1210.37 1356.45 1217.53 1363.62 1217.53 1372.45H1219.53H1221.53C1221.53 1361.41 1212.58 1352.45 1201.53 1352.45V1354.45ZM1183.53 1372.45H1185.53C1185.53 1363.62 1192.7 1356.45 1201.53 1356.45V1354.45V1352.45C1190.49 1352.45 1181.53 1361.41 1181.53 1372.45H1183.53ZM1201.53 1390.45V1388.45C1192.7 1388.45 1185.53 1381.29 1185.53 1372.45H1183.53H1181.53C1181.53 1383.5 1190.49 1392.45 1201.53 1392.45V1390.45Z" fill="#004D71"/>
<path d="M834.534 1156.45C837.534 1142.45 847.034 1131.45 848.534 1129.95C958.034 1107.95 1017.03 1066.45 1026.03 1059.95C1035.03 1053.45 1138.03 988.454 1157.53 904.454C1177.03 820.454 1138.03 817.954 1131.53 814.454C1125.03 810.954 1102.53 807.954 1101.03 834.954C1099.83 856.554 1119.2 852.287 1129.03 847.454C1082.03 941.454 1031.03 878.454 1028.53 873.454C1026.03 868.454 995.034 790.954 1082.53 745.454C1170.03 699.954 1224.53 752.454 1246.03 775.454C1267.53 798.454 1295.53 859.454 1283.53 926.954C1271.53 994.454 1247.53 1053.95 1197.03 1125.45C1156.63 1182.65 1077.53 1262.29 1043.03 1294.95C995.034 1290.45 975.534 1284.95 935.534 1270.95C895.534 1256.95 881.034 1221.95 869.034 1190.95C859.434 1166.15 842.034 1157.62 834.534 1156.45Z" stroke="#004D71" stroke-width="4" stroke-linecap="round" stroke-linejoin="round"/>
<path fill-rule="evenodd" clip-rule="evenodd" d="M1020.42 1292.49C997.063 1289.5 980.671 1285.71 961.193 1279.58C969.773 1266.58 983.601 1237.23 988.534 1194.95C993.404 1153.21 985.266 1110.21 978.787 1087.32C1006 1074.17 1021.73 1063.06 1026.03 1059.95C1026.64 1059.51 1027.68 1058.81 1029.09 1057.84C1031.41 1056.27 1034.72 1054.01 1038.8 1051.13C1054.36 1071.31 1056.41 1152.52 1047.03 1206.45C1040.19 1245.81 1027.98 1277 1020.42 1292.49ZM1135.44 1200.28C1103.07 1236.01 1069 1270.1 1047.71 1290.5C1061.37 1266.92 1083.71 1219.33 1093.53 1164.95C1103.29 1110.95 1097.82 1044.17 1092.39 1006.92C1114.33 985.611 1136.36 959.044 1149.26 929.275C1171.69 1002.67 1158.35 1108.34 1152.53 1136.45C1148.75 1154.72 1141 1181.84 1135.44 1200.28ZM1196.55 737.91C1219.81 748.585 1236.3 765.042 1246.03 775.454C1267.53 798.454 1295.53 859.454 1283.53 926.954C1271.53 994.454 1247.53 1053.95 1197.03 1125.45C1194.91 1128.46 1192.68 1131.53 1190.35 1134.65C1206.78 1093.73 1230.59 1016.32 1229.53 943.954C1228.03 840.954 1206.03 800.454 1176.53 785.954C1148.89 772.365 1115.53 796.541 1108.57 816.507C1104.57 819.891 1101.55 825.636 1101.03 834.954C1099.83 856.554 1119.2 852.287 1129.03 847.454C1127.57 850.378 1126.11 853.15 1124.64 855.777C1114.02 862.916 1099.6 867.892 1086.53 859.454C1062.53 843.954 1087.03 803.454 1091.53 796.454C1095.89 789.672 1125.59 743.941 1196.55 737.91Z" fill="#004D71"/>
<path d="M1020.42 1292.49L1020.16 1294.47C1021.01 1294.58 1021.84 1294.14 1022.21 1293.37L1020.42 1292.49ZM961.193 1279.58L959.524 1278.48C959.178 1279 959.099 1279.66 959.309 1280.25C959.519 1280.84 959.994 1281.3 960.593 1281.49L961.193 1279.58ZM988.534 1194.95L990.52 1195.19L988.534 1194.95ZM978.787 1087.32L977.917 1085.52C977.043 1085.94 976.598 1086.93 976.863 1087.86L978.787 1087.32ZM1026.03 1059.95L1024.86 1058.33L1024.86 1058.33L1026.03 1059.95ZM1029.09 1057.84L1030.22 1059.5L1030.22 1059.5L1029.09 1057.84ZM1038.8 1051.13L1040.38 1049.91C1039.73 1049.06 1038.52 1048.88 1037.64 1049.5L1038.8 1051.13ZM1047.03 1206.45L1049 1206.8L1049 1206.8L1047.03 1206.45ZM1135.44 1200.28L1136.92 1201.62C1137.12 1201.4 1137.27 1201.14 1137.35 1200.85L1135.44 1200.28ZM1047.71 1290.5L1045.98 1289.5C1045.48 1290.36 1045.69 1291.46 1046.47 1292.07C1047.26 1292.69 1048.37 1292.63 1049.09 1291.94L1047.71 1290.5ZM1093.53 1164.95L1091.57 1164.6L1091.57 1164.6L1093.53 1164.95ZM1092.39 1006.92L1091 1005.49C1090.54 1005.93 1090.32 1006.57 1090.41 1007.21L1092.39 1006.92ZM1149.26 929.275L1151.17 928.691C1150.92 927.889 1150.21 927.326 1149.37 927.279C1148.53 927.232 1147.75 927.711 1147.42 928.48L1149.26 929.275ZM1152.53 1136.45L1154.49 1136.86L1154.49 1136.86L1152.53 1136.45ZM1196.55 737.91L1197.38 736.092C1197.07 735.948 1196.72 735.888 1196.38 735.917L1196.55 737.91ZM1246.03 775.454L1244.57 776.82L1244.57 776.82L1246.03 775.454ZM1283.53 926.954L1281.56 926.604L1281.56 926.604L1283.53 926.954ZM1197.03 1125.45L1198.67 1126.61L1198.67 1126.61L1197.03 1125.45ZM1190.35 1134.65L1188.5 1133.91C1188.12 1134.84 1188.5 1135.91 1189.37 1136.4C1190.25 1136.89 1191.36 1136.65 1191.96 1135.85L1190.35 1134.65ZM1229.53 943.954L1231.53 943.924L1231.53 943.924L1229.53 943.954ZM1176.53 785.954L1177.42 784.159L1177.42 784.159L1176.53 785.954ZM1108.57 816.507L1109.86 818.033C1110.13 817.802 1110.34 817.503 1110.46 817.165L1108.57 816.507ZM1101.03 834.954L1103.03 835.065L1103.03 835.065L1101.03 834.954ZM1129.03 847.454L1130.82 848.348C1131.21 847.58 1131.06 846.653 1130.45 846.044C1129.85 845.435 1128.92 845.28 1128.15 845.659L1129.03 847.454ZM1124.64 855.777L1125.75 857.436C1126.01 857.261 1126.23 857.026 1126.38 856.752L1124.64 855.777ZM1086.53 859.454L1085.45 861.134L1085.45 861.134L1086.53 859.454ZM1091.53 796.454L1089.85 795.372L1089.85 795.372L1091.53 796.454ZM1020.42 1292.49L1020.67 1290.5C997.438 1287.53 981.162 1283.77 961.793 1277.67L961.193 1279.58L960.593 1281.49C980.181 1287.65 996.688 1291.47 1020.16 1294.47L1020.42 1292.49ZM988.534 1194.95L986.547 1194.72C981.65 1236.7 967.926 1265.75 959.524 1278.48L961.193 1279.58L962.863 1280.68C971.619 1267.41 985.553 1237.77 990.52 1195.19L988.534 1194.95ZM978.787 1087.32L976.863 1087.86C983.302 1110.61 991.376 1153.33 986.547 1194.72L988.534 1194.95L990.52 1195.19C995.432 1153.09 987.231 1109.81 980.711 1086.78L978.787 1087.32ZM978.787 1087.32L979.657 1089.12C1007 1075.91 1022.83 1064.73 1027.2 1061.57L1026.03 1059.95L1024.86 1058.33C1020.63 1061.39 1005 1072.43 977.917 1085.52L978.787 1087.32ZM1026.03 1059.95L1027.2 1061.57C1027.79 1061.16 1028.79 1060.47 1030.22 1059.5L1029.09 1057.84L1027.97 1056.19C1026.57 1057.14 1025.5 1057.87 1024.86 1058.33L1026.03 1059.95ZM1029.09 1057.84L1030.22 1059.5C1032.53 1057.92 1035.86 1055.66 1039.95 1052.76L1038.8 1051.13L1037.64 1049.5C1033.58 1052.37 1030.28 1054.62 1027.97 1056.19L1029.09 1057.84ZM1047.03 1206.45L1049 1206.8C1053.72 1179.67 1055.56 1145.74 1054.27 1116.05C1053.62 1101.2 1052.19 1087.36 1049.93 1075.94C1047.69 1064.6 1044.57 1055.34 1040.38 1049.91L1038.8 1051.13L1037.21 1052.35C1040.8 1057 1043.78 1065.47 1046 1076.71C1048.21 1087.88 1049.63 1101.5 1050.27 1116.22C1051.55 1145.66 1049.73 1179.3 1045.06 1206.11L1047.03 1206.45ZM1020.42 1292.49L1022.21 1293.37C1029.85 1277.72 1042.12 1246.36 1049 1206.8L1047.03 1206.45L1045.06 1206.11C1038.25 1245.27 1026.1 1276.27 1018.62 1291.61L1020.42 1292.49ZM1135.44 1200.28L1133.96 1198.93C1101.62 1234.62 1067.59 1268.68 1046.33 1289.06L1047.71 1290.5L1049.09 1291.94C1070.41 1271.52 1104.51 1237.39 1136.92 1201.62L1135.44 1200.28ZM1093.53 1164.95L1091.57 1164.6C1081.79 1218.69 1059.56 1266.06 1045.98 1289.5L1047.71 1290.5L1049.44 1291.5C1063.19 1267.78 1085.63 1219.97 1095.5 1165.31L1093.53 1164.95ZM1092.39 1006.92L1090.41 1007.21C1095.83 1044.39 1101.26 1110.91 1091.57 1164.6L1093.53 1164.95L1095.5 1165.31C1105.32 1110.99 1099.81 1043.96 1094.37 1006.63L1092.39 1006.92ZM1092.39 1006.92L1093.79 1008.36C1115.82 986.955 1138.05 960.176 1151.09 930.07L1149.26 929.275L1147.42 928.48C1134.67 957.912 1112.84 984.267 1091 1005.49L1092.39 1006.92ZM1152.53 1136.45L1154.49 1136.86C1157.43 1122.68 1162.23 1089.12 1163.49 1049.91C1164.75 1010.72 1162.48 965.699 1151.17 928.691L1149.26 929.275L1147.34 929.86C1158.46 966.248 1160.74 1010.76 1159.49 1049.78C1158.24 1088.78 1153.46 1122.11 1150.58 1136.05L1152.53 1136.45ZM1135.44 1200.28L1137.35 1200.85C1142.92 1182.42 1150.69 1155.23 1154.49 1136.86L1152.53 1136.45L1150.58 1136.05C1146.82 1154.22 1139.09 1181.27 1133.52 1199.7L1135.44 1200.28ZM1196.55 737.91L1195.71 739.728C1218.61 750.235 1234.89 766.457 1244.57 776.82L1246.03 775.454L1247.49 774.088C1237.72 763.627 1221 746.934 1197.38 736.092L1196.55 737.91ZM1246.03 775.454L1244.57 776.82C1255.07 788.049 1267.31 808.761 1275.44 835.105C1283.55 861.419 1287.5 893.219 1281.56 926.604L1283.53 926.954L1285.5 927.304C1291.57 893.189 1287.52 860.739 1279.26 833.927C1271 807.146 1258.5 785.858 1247.49 774.088L1246.03 775.454ZM1283.53 926.954L1281.56 926.604C1269.62 993.79 1245.75 1053.02 1195.4 1124.3L1197.03 1125.45L1198.67 1126.61C1249.32 1054.89 1273.45 995.118 1285.5 927.304L1283.53 926.954ZM1197.03 1125.45L1195.4 1124.3C1193.29 1127.29 1191.07 1130.35 1188.75 1133.46L1190.35 1134.65L1191.96 1135.85C1194.29 1132.71 1196.53 1129.63 1198.67 1126.61L1197.03 1125.45ZM1229.53 943.954L1227.53 943.983C1228.58 1015.97 1204.88 1093.1 1188.5 1133.91L1190.35 1134.65L1192.21 1135.4C1208.68 1094.36 1232.59 1016.67 1231.53 943.924L1229.53 943.954ZM1176.53 785.954L1175.65 787.748C1204.01 801.685 1226.03 840.999 1227.53 943.983L1229.53 943.954L1231.53 943.924C1230.03 840.908 1208.06 799.222 1177.42 784.159L1176.53 785.954ZM1108.57 816.507L1110.46 817.165C1113.73 807.769 1123.4 797.076 1135.75 790.407C1148.05 783.76 1162.59 781.331 1175.65 787.748L1176.53 785.954L1177.42 784.159C1162.83 776.988 1146.87 779.852 1133.85 786.888C1120.86 793.901 1110.37 805.279 1106.68 815.848L1108.57 816.507ZM1108.57 816.507L1107.28 814.98C1102.75 818.809 1099.58 825.131 1099.04 834.843L1101.03 834.954L1103.03 835.065C1103.53 826.14 1106.39 820.973 1109.86 818.033L1108.57 816.507ZM1101.03 834.954L1099.04 834.843C1098.72 840.513 1099.74 844.795 1101.88 847.849C1104.06 850.94 1107.2 852.503 1110.55 853.087C1117.1 854.224 1124.87 851.73 1129.92 849.249L1129.03 847.454L1128.15 845.659C1123.37 848.011 1116.54 850.066 1111.24 849.146C1108.67 848.7 1106.58 847.582 1105.16 845.549C1103.7 843.479 1102.75 840.195 1103.03 835.065L1101.03 834.954ZM1129.03 847.454L1127.25 846.559C1125.8 849.457 1124.34 852.202 1122.89 854.801L1124.64 855.777L1126.38 856.752C1127.87 854.097 1129.35 851.298 1130.82 848.348L1129.03 847.454ZM1086.53 859.454L1085.45 861.134C1099.55 870.24 1114.93 864.717 1125.75 857.436L1124.64 855.777L1123.52 854.117C1113.12 861.115 1099.65 865.543 1087.62 857.774L1086.53 859.454ZM1091.53 796.454L1089.85 795.372C1087.57 798.917 1080.19 810.991 1076.42 824.218C1072.69 837.299 1072.24 852.603 1085.45 861.134L1086.53 859.454L1087.62 857.774C1076.83 850.805 1076.62 838.108 1080.27 825.314C1083.87 812.666 1090.99 800.991 1093.22 797.535L1091.53 796.454ZM1196.55 737.91L1196.38 735.917C1124.5 742.026 1094.34 788.394 1089.85 795.372L1091.53 796.454L1093.22 797.535C1097.45 790.95 1126.69 745.855 1196.72 739.903L1196.55 737.91Z" fill="#004D71"/>
<path fill-rule="evenodd" clip-rule="evenodd" d="M869.185 1125.45C965.471 1102.72 1017.62 1066.03 1026.03 1059.95C1026.64 1059.51 1027.68 1058.81 1029.1 1057.84C1048.58 1044.58 1139.35 982.773 1157.53 904.454C1174.96 829.391 1145.67 819.408 1134.6 815.637C1133.29 815.188 1132.23 814.826 1131.53 814.454C1126.63 811.811 1112.59 809.453 1105.37 820.084C1109.31 810.702 1124.79 799.18 1158.53 822.454C1200.3 851.261 1176.61 909.111 1171.12 922.521C1170.89 923.077 1170.69 923.556 1170.53 923.954C1170.32 924.49 1170.08 925.117 1169.81 925.833C1164.96 938.468 1149.46 978.885 1077.53 1039.45C1012.21 1094.47 945.404 1115.86 925.071 1122.37C921.748 1123.44 919.666 1124.1 919.034 1124.45C915.205 1126.58 892.188 1132.69 882.022 1135.39C880.241 1135.86 878.854 1136.23 878.034 1136.45C876.212 1133.51 872.289 1127.88 869.185 1125.45Z" fill="#004D71"/>
<path d="M869.185 1125.45L868.725 1123.5C867.977 1123.68 867.396 1124.27 867.231 1125.02C867.066 1125.77 867.347 1126.55 867.952 1127.02L869.185 1125.45ZM1026.03 1059.95L1024.86 1058.33L1024.86 1058.33L1026.03 1059.95ZM1029.1 1057.84L1030.22 1059.5L1030.22 1059.5L1029.1 1057.84ZM1157.53 904.454L1159.48 904.906L1157.53 904.454ZM1134.6 815.637L1133.96 817.53L1133.96 817.53L1134.6 815.637ZM1131.53 814.454L1132.48 812.693L1132.48 812.693L1131.53 814.454ZM1105.37 820.084L1103.53 819.309C1103.13 820.256 1103.51 821.351 1104.42 821.841C1105.32 822.332 1106.45 822.058 1107.02 821.208L1105.37 820.084ZM1158.53 822.454L1157.4 824.101L1157.4 824.101L1158.53 822.454ZM1171.12 922.521L1169.27 921.763L1169.27 921.763L1171.12 922.521ZM1170.53 923.954L1172.39 924.697L1172.39 924.697L1170.53 923.954ZM1169.81 925.833L1171.67 926.549L1171.67 926.549L1169.81 925.833ZM1077.53 1039.45L1076.25 1037.92L1076.25 1037.92L1077.53 1039.45ZM925.071 1122.37L925.681 1124.28L925.681 1124.28L925.071 1122.37ZM919.034 1124.45L918.063 1122.71L918.063 1122.71L919.034 1124.45ZM882.022 1135.39L882.535 1137.32L882.535 1137.32L882.022 1135.39ZM878.034 1136.45L876.334 1137.51C876.8 1138.26 877.706 1138.62 878.561 1138.38L878.034 1136.45ZM869.185 1125.45L869.644 1127.39C966.251 1104.59 1018.64 1067.76 1027.21 1061.58L1026.03 1059.95L1024.86 1058.33C1016.6 1064.3 964.69 1100.85 868.725 1123.5L869.185 1125.45ZM1026.03 1059.95L1027.21 1061.58C1027.79 1061.16 1028.79 1060.47 1030.22 1059.5L1029.1 1057.84L1027.97 1056.19C1026.57 1057.14 1025.5 1057.87 1024.86 1058.33L1026.03 1059.95ZM1029.1 1057.84L1030.22 1059.5C1039.98 1052.85 1067.67 1034 1095.21 1006.97C1122.7 979.976 1150.26 944.618 1159.48 904.906L1157.53 904.454L1155.59 904.002C1146.62 942.609 1119.71 977.312 1092.4 1004.12C1065.14 1030.88 1037.7 1049.57 1027.97 1056.19L1029.1 1057.84ZM1157.53 904.454L1159.48 904.906C1168.24 867.18 1165.38 845.348 1158.52 832.376C1151.61 819.306 1140.87 815.658 1135.25 813.743L1134.6 815.637L1133.96 817.53C1139.41 819.387 1148.84 822.616 1154.99 834.246C1161.18 845.974 1164.25 866.665 1155.59 904.002L1157.53 904.454ZM1134.6 815.637L1135.25 813.743C1133.86 813.269 1132.99 812.967 1132.48 812.693L1131.53 814.454L1130.59 816.215C1131.46 816.686 1132.71 817.106 1133.96 817.53L1134.6 815.637ZM1131.53 814.454L1132.48 812.693C1129.67 811.179 1124.55 809.859 1119.16 810.298C1113.7 810.742 1107.75 813.018 1103.72 818.96L1105.37 820.084L1107.02 821.208C1110.21 816.519 1114.89 814.658 1119.48 814.285C1124.14 813.905 1128.49 815.087 1130.59 816.215L1131.53 814.454ZM1158.53 822.454L1159.67 820.808C1142.6 809.033 1129.79 805.804 1120.51 807.041C1111.16 808.288 1105.74 814.034 1103.53 819.309L1105.37 820.084L1107.21 820.859C1108.94 816.751 1113.24 812.046 1121.04 811.005C1128.92 809.954 1140.73 812.602 1157.4 824.101L1158.53 822.454ZM1171.12 922.521L1172.97 923.279C1175.72 916.567 1183.13 898.491 1184.54 878.402C1185.96 858.273 1181.36 835.765 1159.67 820.808L1158.53 822.454L1157.4 824.101C1177.48 837.95 1181.92 858.771 1180.55 878.121C1179.19 897.511 1172.01 915.065 1169.27 921.763L1171.12 922.521ZM1170.53 923.954L1172.39 924.697C1172.55 924.308 1172.74 923.838 1172.97 923.279L1171.12 922.521L1169.27 921.763C1169.04 922.316 1168.84 922.804 1168.68 923.211L1170.53 923.954ZM1169.81 925.833L1171.67 926.549C1171.95 925.829 1172.18 925.217 1172.39 924.697L1170.53 923.954L1168.68 923.211C1168.46 923.764 1168.21 924.405 1167.94 925.116L1169.81 925.833ZM1077.53 1039.45L1078.82 1040.98C1151.02 980.183 1166.71 939.479 1171.67 926.549L1169.81 925.833L1167.94 925.116C1163.21 937.457 1147.9 977.587 1076.25 1037.92L1077.53 1039.45ZM925.071 1122.37L925.681 1124.28C946.081 1117.74 1013.19 1096.25 1078.82 1040.98L1077.53 1039.45L1076.25 1037.92C1011.23 1092.68 944.728 1113.98 924.461 1120.47L925.071 1122.37ZM919.034 1124.45L920.006 1126.2C920.003 1126.2 920.013 1126.2 920.037 1126.19C920.061 1126.18 920.093 1126.16 920.137 1126.14C920.225 1126.1 920.342 1126.06 920.491 1126C920.792 1125.88 921.188 1125.74 921.685 1125.57C922.68 1125.24 924.013 1124.81 925.681 1124.28L925.071 1122.37L924.461 1120.47C922.806 1121 921.436 1121.44 920.402 1121.79C919.441 1122.11 918.571 1122.42 918.063 1122.71L919.034 1124.45ZM882.022 1135.39L882.535 1137.32C887.616 1135.97 895.928 1133.77 903.451 1131.63C907.211 1130.56 910.789 1129.51 913.675 1128.59C916.48 1127.69 918.841 1126.85 920.006 1126.2L919.034 1124.45L918.063 1122.71C917.313 1123.12 915.361 1123.85 912.456 1124.78C909.631 1125.68 906.102 1126.72 902.358 1127.78C894.874 1129.91 886.594 1132.11 881.509 1133.46L882.022 1135.39ZM878.034 1136.45L878.561 1138.38C879.372 1138.16 880.75 1137.8 882.535 1137.32L882.022 1135.39L881.509 1133.46C879.732 1133.93 878.336 1134.3 877.508 1134.52L878.034 1136.45ZM869.185 1125.45L867.952 1127.02C869.297 1128.07 870.928 1129.92 872.504 1131.97C874.055 1134 875.453 1136.08 876.334 1137.51L878.034 1136.45L879.735 1135.4C878.793 1133.88 877.319 1131.68 875.677 1129.54C874.059 1127.43 872.177 1125.25 870.417 1123.87L869.185 1125.45Z" fill="#004D71"/>
<path fill-rule="evenodd" clip-rule="evenodd" d="M1035.21 881.476C1031.26 863.511 1027.7 828.611 1050.03 792.454C1069.48 760.966 1097.33 741.549 1116.61 731.951C1105.87 734.834 1094.51 739.226 1082.53 745.455C995.035 790.955 1026.03 868.454 1028.53 873.454C1029.03 874.436 1031.38 877.652 1035.21 881.476Z" fill="#004D71"/>
<path d="M1050.03 792.454L1051.74 793.505L1051.74 793.505L1050.03 792.454ZM1035.21 881.476L1033.8 882.891C1034.43 883.519 1035.4 883.657 1036.18 883.23C1036.96 882.803 1037.36 881.913 1037.17 881.045L1035.21 881.476ZM1116.61 731.951L1117.5 733.742C1118.42 733.284 1118.85 732.204 1118.48 731.243C1118.12 730.282 1117.09 729.753 1116.1 730.02L1116.61 731.951ZM1082.53 745.455L1081.61 743.68L1081.61 743.68L1082.53 745.455ZM1028.53 873.454L1030.32 872.56L1030.32 872.56L1028.53 873.454ZM1050.03 792.454L1048.33 791.403C1025.62 828.174 1029.24 863.672 1033.26 881.906L1035.21 881.476L1037.17 881.045C1033.27 863.35 1029.78 829.048 1051.74 793.505L1050.03 792.454ZM1116.61 731.951L1115.72 730.161C1096.2 739.875 1068.03 759.515 1048.33 791.403L1050.03 792.454L1051.74 793.505C1070.94 762.416 1098.46 743.222 1117.5 733.742L1116.61 731.951ZM1082.53 745.455L1083.46 747.229C1095.32 741.062 1106.54 736.725 1117.13 733.883L1116.61 731.951L1116.1 730.02C1105.2 732.943 1093.71 737.39 1081.61 743.68L1082.53 745.455ZM1028.53 873.454L1030.32 872.56C1029.2 870.304 1020.95 850.069 1023.77 824.865C1026.57 799.829 1040.31 769.667 1083.46 747.229L1082.53 745.455L1081.61 743.68C1037.26 766.743 1022.74 798.08 1019.8 824.42C1016.87 850.59 1025.37 871.605 1026.75 874.349L1028.53 873.454ZM1035.21 881.476L1036.63 880.061C1034.76 878.2 1033.27 876.494 1032.18 875.145C1031.06 873.75 1030.47 872.844 1030.32 872.56L1028.53 873.454L1026.75 874.349C1027.09 875.047 1027.93 876.239 1029.06 877.653C1030.24 879.114 1031.83 880.928 1033.8 882.891L1035.21 881.476Z" fill="#004D71"/>
<path fill-rule="evenodd" clip-rule="evenodd" d="M934.52 1270.59C915.224 1263.59 901.946 1251.65 892.018 1237.66C900.467 1173.63 881.343 1138.52 868.469 1125.61C896.225 1119.1 920.33 1111.42 940.793 1103.63C949.324 1118.93 957.916 1165.06 952.034 1212.95C947.765 1247.72 940.125 1264.15 934.52 1270.59Z" fill="#004D71"/>
<path d="M934.52 1270.59L933.838 1272.47C934.615 1272.75 935.486 1272.53 936.029 1271.91L934.52 1270.59ZM892.018 1237.66L890.035 1237.4C889.969 1237.9 890.095 1238.41 890.387 1238.82L892.018 1237.66ZM868.469 1125.61L868.012 1123.67C867.306 1123.83 866.745 1124.37 866.546 1125.07C866.346 1125.76 866.54 1126.51 867.053 1127.03L868.469 1125.61ZM940.793 1103.63L942.54 1102.66C942.057 1101.79 941.01 1101.41 940.082 1101.77L940.793 1103.63ZM952.034 1212.95L950.049 1212.71L952.034 1212.95ZM934.52 1270.59L935.202 1268.71C916.356 1261.88 903.387 1250.22 893.649 1236.5L892.018 1237.66L890.387 1238.82C900.506 1253.07 914.093 1265.31 933.838 1272.47L934.52 1270.59ZM892.018 1237.66L894.001 1237.92C902.513 1173.41 883.286 1137.64 869.885 1124.2L868.469 1125.61L867.053 1127.03C879.399 1139.41 898.421 1173.85 890.035 1237.4L892.018 1237.66ZM868.469 1125.61L868.926 1127.56C896.772 1121.03 920.962 1113.32 941.504 1105.5L940.793 1103.63L940.082 1101.77C919.698 1109.52 895.678 1117.17 868.012 1123.67L868.469 1125.61ZM940.793 1103.63L939.047 1104.61C943.122 1111.92 947.364 1126.96 949.835 1146.32C952.295 1165.61 952.967 1188.95 950.049 1212.71L952.034 1212.95L954.019 1213.2C956.983 1189.07 956.3 1165.39 953.802 1145.82C951.314 1126.32 946.996 1110.65 942.54 1102.66L940.793 1103.63ZM952.034 1212.95L950.049 1212.71C945.793 1247.37 938.212 1263.3 933.011 1269.28L934.52 1270.59L936.029 1271.91C942.039 1265 949.737 1248.06 954.019 1213.2L952.034 1212.95Z" fill="#004D71"/>
</svg>
